<svg xmlns="http://www.w3.org/2000/svg" width="41" height="40" fill="none" viewBox="0 0 41 40">
  <rect width="40.02" height="40" fill="#fff" rx="8"/>
  <path fill="#000" d="M20.01 24.861a.94.94 0 0 0 .693-.28.94.94 0 0 0 .28-.692.94.94 0 0 0-.28-.693.94.94 0 0 0-.693-.28.94.94 0 0 0-.692.28.94.94 0 0 0-.28.693c0 .275.093.506.28.693a.94.94 0 0 0 .692.28Zm0-3.889a.94.94 0 0 0 .693-.28.94.94 0 0 0 .28-.692.94.94 0 0 0-.28-.693.94.94 0 0 0-.693-.28.94.94 0 0 0-.692.28.94.94 0 0 0-.28.693.94.94 0 0 0 .28.693.94.94 0 0 0 .692.28Zm0-3.889a.94.94 0 0 0 .693-.28.94.94 0 0 0 .28-.692.94.94 0 0 0-.28-.693.94.94 0 0 0-.693-.28.94.94 0 0 0-.692.28.94.94 0 0 0-.28.693.94.94 0 0 0 .28.693.94.94 0 0 0 .692.28Zm7.778 10.695H12.232c-.534 0-.992-.19-1.373-.571a1.872 1.872 0 0 1-.57-1.374v-3.889c.534 0 .992-.19 1.372-.57.381-.381.572-.84.572-1.374 0-.535-.19-.992-.572-1.373a1.872 1.872 0 0 0-1.373-.572v-3.888c0-.535.19-.993.571-1.374.381-.38.839-.57 1.373-.57h15.556c.535 0 .993.19 1.373.57.381.381.572.839.572 1.374v3.888c-.535 0-.993.19-1.374.572-.38.38-.57.838-.57 1.373s.19.992.57 1.373c.381.381.839.571 1.373.571v3.89c0 .534-.19.992-.57 1.373-.381.38-.84.57-1.374.57Zm0-1.945v-2.479a3.986 3.986 0 0 1-1.422-1.422A3.74 3.74 0 0 1 25.844 20c0-.697.174-1.34.522-1.932a3.986 3.986 0 0 1 1.422-1.422v-2.48H12.232v2.48c.6.356 1.074.83 1.422 1.422A3.74 3.74 0 0 1 14.177 20a3.74 3.74 0 0 1-.523 1.932 3.986 3.986 0 0 1-1.421 1.422v2.48h15.555Z"/>
</svg>
